<svg xmlns="http://www.w3.org/2000/svg" viewBox="0 0 800 600">
  <defs>
    <linearGradient id="dawnGlow" x1="0%" y1="100%" x2="0%" y2="0%">
      <stop offset="0%" stop-color="#0c0b20" />
      <stop offset="60%" stop-color="#322a5d" />
      <stop offset="100%" stop-color="#f0d2a2" />
    </linearGradient>
  </defs>
  <rect width="800" height="600" fill="#080512" />
  <rect x="0" y="0" width="800" height="600" fill="url(#dawnGlow)" opacity="0.9" />
  <rect x="120" y="400" width="560" height="120" fill="#1a1436" opacity="0.85" rx="18" />
  <rect x="160" y="360" width="480" height="80" fill="#2b1d47" opacity="0.8" rx="14" />
  <path d="M200 320 L360 320 L340 360 L220 360 Z" fill="#f6d9a8" opacity="0.7" />
  <path d="M220 320 C260 260 300 240 360 240" stroke="#f6d9a8" stroke-width="8" stroke-linecap="round" fill="none" opacity="0.6" />
  <path d="M600 240 L580 420" stroke="#f7dfb6" stroke-width="10" stroke-linecap="round" opacity="0.6" />
  <rect x="560" y="300" width="64" height="96" fill="#f0d2a2" opacity="0.8" rx="10" />
  <path d="M180 440 H620" stroke="#f7dfb6" stroke-width="4" stroke-linecap="round" opacity="0.4" />
  <path d="M240 440 Q320 420 400 440 T560 440" stroke="#f7dfb6" stroke-width="3" stroke-linecap="round" opacity="0.4" fill="none" />
  <circle cx="400" cy="180" r="120" fill="#f7d6a4" opacity="0.6" />
  <path d="M320 120 Q400 100 480 140" stroke="#fce9cc" stroke-width="6" stroke-linecap="round" fill="none" opacity="0.6" />
  <path d="M320 180 Q400 160 480 200" stroke="#fce9cc" stroke-width="6" stroke-linecap="round" fill="none" opacity="0.6" />
  <path d="M320 240 Q400 220 480 260" stroke="#fce9cc" stroke-width="6" stroke-linecap="round" fill="none" opacity="0.6" />
</svg>
