<svg xmlns="http://www.w3.org/2000/svg" viewBox="0 0 800 600">
  <defs>
    <linearGradient id="sigilSky" x1="0%" y1="0%" x2="0%" y2="100%">
      <stop offset="0%" stop-color="#4a1a43" />
      <stop offset="60%" stop-color="#8c2f5c" />
      <stop offset="100%" stop-color="#f0a6a1" />
    </linearGradient>
  </defs>
  <rect width="800" height="600" fill="#200718" />
  <rect x="0" y="0" width="800" height="600" fill="url(#sigilSky)" opacity="0.85" />
  <g stroke="#ffd8d0" stroke-width="4" fill="none" opacity="0.8">
    <path d="M400 140 L460 240 L400 340 L340 240 Z" />
    <circle cx="400" cy="240" r="120" />
    <path d="M400 120 L400 80" stroke-linecap="round" />
    <path d="M400 360 L400 400" stroke-linecap="round" />
    <path d="M280 240 L240 240" stroke-linecap="round" />
    <path d="M520 240 L560 240" stroke-linecap="round" />
    <path d="M320 160 L280 120" stroke-linecap="round" />
    <path d="M480 160 L520 120" stroke-linecap="round" />
    <path d="M320 320 L280 360" stroke-linecap="round" />
    <path d="M480 320 L520 360" stroke-linecap="round" />
  </g>
  <g fill="#ffe9d6" opacity="0.9">
    <circle cx="400" cy="240" r="18" />
    <circle cx="400" cy="120" r="6" />
    <circle cx="520" cy="240" r="6" />
    <circle cx="280" cy="240" r="6" />
    <circle cx="320" cy="160" r="5" />
    <circle cx="480" cy="160" r="5" />
    <circle cx="320" cy="320" r="5" />
    <circle cx="480" cy="320" r="5" />
  </g>
  <rect x="0" y="440" width="800" height="160" fill="#46132e" opacity="0.9" />
  <path d="M0 460 Q200 420 400 460 T800 460" stroke="#fbd5c4" stroke-width="4" stroke-linecap="round" fill="none" opacity="0.5" />
</svg>
