<svg xmlns="http://www.w3.org/2000/svg" viewBox="0 0 800 600">
  <defs>
    <linearGradient id="ridgeGradient" x1="0%" y1="0%" x2="100%" y2="100%">
      <stop offset="0%" stop-color="#0d1f24" />
      <stop offset="50%" stop-color="#123c4a" />
      <stop offset="100%" stop-color="#1c5b5d" />
    </linearGradient>
  </defs>
  <rect width="800" height="600" fill="#051012" />
  <rect x="0" y="0" width="800" height="600" fill="url(#ridgeGradient)" opacity="0.85" />
  <path d="M0 400 C120 360 200 340 320 360 C440 380 520 370 640 330 C720 300 760 300 800 320 L800 600 L0 600 Z" fill="#061c24" />
  <path d="M100 360 C150 320 220 320 300 340 C380 360 440 360 520 340 C580 330 640 300 700 280" stroke="#8ce7cc" stroke-width="6" stroke-linecap="round" fill="none" opacity="0.4" />
  <path d="M620 180 C640 140 660 110 680 100" stroke="#8ce7cc" stroke-width="6" stroke-linecap="round" fill="none" opacity="0.6" />
  <circle cx="640" cy="220" r="60" fill="#103239" />
  <circle cx="640" cy="220" r="34" fill="#8ce7cc" opacity="0.8" />
  <path d="M590 250 Q640 210 690 250" stroke="#8ce7cc" stroke-width="6" stroke-linecap="round" fill="none" opacity="0.7" />
</svg>
