<svg xmlns="http://www.w3.org/2000/svg" viewBox="0 0 800 600">
  <defs>
    <linearGradient id="nightGradient" x1="0%" y1="0%" x2="100%" y2="0%">
      <stop offset="0%" stop-color="#051a14" />
      <stop offset="50%" stop-color="#0a3428" />
      <stop offset="100%" stop-color="#144d39" />
    </linearGradient>
    <radialGradient id="crystalGlow" cx="20%" cy="60%" r="40%">
      <stop offset="0%" stop-color="#b8fff2" />
      <stop offset="100%" stop-color="#144d39" stop-opacity="0" />
    </radialGradient>
  </defs>
  <rect width="800" height="600" fill="#030b09" />
  <rect x="0" y="0" width="800" height="600" fill="url(#nightGradient)" opacity="0.85" />
  <circle cx="140" cy="420" r="150" fill="url(#crystalGlow)" opacity="0.8" />
  <path d="M0 420 C120 360 200 360 320 400 C440 440 560 420 680 360 C740 330 780 330 800 340 L800 600 L0 600 Z" fill="#07261b" opacity="0.9" />
  <path d="M60 380 C120 340 200 340 280 360 C360 380 420 380 500 360" stroke="#c1fff3" stroke-width="10" stroke-linecap="round" fill="none" opacity="0.4" />
  <path d="M620 120 L660 220 L600 220 Z" fill="#0f2e24" />
  <path d="M650 150 L690 250 L610 250 Z" fill="#174030" opacity="0.7" />
  <circle cx="660" cy="110" r="30" fill="#d9f6ff" opacity="0.7" />
  <g fill="#c1fff3" opacity="0.6">
    <circle cx="100" cy="120" r="3" />
    <circle cx="160" cy="80" r="2" />
    <circle cx="220" cy="140" r="2" />
    <circle cx="300" cy="60" r="3" />
    <circle cx="420" cy="100" r="2" />
    <circle cx="520" cy="80" r="3" />
  </g>
</svg>
